HIERARCHY
ROOT joint_Root
{
	OFFSET 0.0 0.0 0.0
	CHANNELS 6 Xposition Yposition Zposition Zrotation Xrotation Yrotation 
	JOINT Hips
	{
		OFFSET -0.726466 93.3139 -2.00062
		CHANNELS 6 Xposition Yposition Zposition Zrotation Xrotation Yrotation 
		JOINT Spine
		{
			OFFSET 15.7357 0.0 0.0
			CHANNELS 6 Xposition Yposition Zposition Zrotation Xrotation Yrotation 
			JOINT Chest
			{
				OFFSET 8.98455 -0.406207 0.0
				CHANNELS 6 Xposition Yposition Zposition Zrotation Xrotation Yrotation 
				JOINT Neck
				{
					OFFSET 16.3773 0.0 0.0
					CHANNELS 6 Xposition Yposition Zposition Zrotation Xrotation Yrotation 
					JOINT Head
					{
						OFFSET 6.45672 0.0 0.0
						CHANNELS 6 Xposition Yposition Zposition Zrotation Xrotation Yrotation 
						End Site
						{
							OFFSET 0.0 0.0 0.0
						}
					}
				}
				JOINT Shoulder_L
				{
					OFFSET 12.9942 -0.242716 4.98039
					CHANNELS 6 Xposition Yposition Zposition Zrotation Xrotation Yrotation 
					JOINT UpperArm_L
					{
						OFFSET 5.34809 0.0 0.0
						CHANNELS 6 Xposition Yposition Zposition Zrotation Xrotation Yrotation 
						JOINT LowerArm_L
						{
							OFFSET 24.3286 1.87007e-05 0.0
							CHANNELS 6 Xposition Yposition Zposition Zrotation Xrotation Yrotation 
							JOINT Hand_L
							{
								OFFSET 22.2916 0.0 0.0
								CHANNELS 6 Xposition Yposition Zposition Zrotation Xrotation Yrotation 
								End Site
								{
									OFFSET 0.0 0.0 0.0
								}
							}
						}
					}
				}
				JOINT Shoulder_R
				{
					OFFSET 12.9945 -0.242716 -4.98039
					CHANNELS 6 Xposition Yposition Zposition Zrotation Xrotation Yrotation 
					JOINT UpperArm_R
					{
						OFFSET -5.34813 0.0 0.0
						CHANNELS 6 Xposition Yposition Zposition Zrotation Xrotation Yrotation 
						JOINT LowerArm_R
						{
							OFFSET -24.3289 0.000322201 0.0
							CHANNELS 6 Xposition Yposition Zposition Zrotation Xrotation Yrotation 
							JOINT Hand_R
							{
								OFFSET -22.2915 -0.000108084 0.0
								CHANNELS 6 Xposition Yposition Zposition Zrotation Xrotation Yrotation 
								End Site
								{
									OFFSET 0.0 0.0 0.0
								}
							}
						}
					}
				}
			}
		}
		JOINT UpperLeg_L
		{
			OFFSET -2.19248 -6.46944 0.0
			CHANNELS 6 Xposition Yposition Zposition Zrotation Xrotation Yrotation 
			JOINT LowerLeg_L
			{
				OFFSET 39.0811 0.0 -1.23785e-05
				CHANNELS 6 Xposition Yposition Zposition Zrotation Xrotation Yrotation 
				JOINT Foot_L
				{
					OFFSET 40.9854 0.0 -1.26872e-05
					CHANNELS 6 Xposition Yposition Zposition Zrotation Xrotation Yrotation 
					JOINT Toes_L
					{
						OFFSET 11.7543 0.0 0.0
						CHANNELS 6 Xposition Yposition Zposition Zrotation Xrotation Yrotation 
						End Site
						{
							OFFSET 0.0 0.0 0.0
						}
					}
				}
			}
		}
		JOINT UpperLeg_R
		{
			OFFSET -2.19251 6.46944 0.0
			CHANNELS 6 Xposition Yposition Zposition Zrotation Xrotation Yrotation 
			JOINT LowerLeg_R
			{
				OFFSET -39.0811 -0.00228153 -0.0401928
				CHANNELS 6 Xposition Yposition Zposition Zrotation Xrotation Yrotation 
				JOINT Foot_R
				{
					OFFSET -40.9854 0.0 0.0
					CHANNELS 6 Xposition Yposition Zposition Zrotation Xrotation Yrotation 
					JOINT Toes_R
					{
						OFFSET -11.7543 0.0 0.0
						CHANNELS 6 Xposition Yposition Zposition Zrotation Xrotation Yrotation 
						End Site
						{
							OFFSET 0.0 0.0 0.0
						}
					}
				}
			}
		}
	}
}
MOTION
Frames:	4
Frame Time:	0.0333333
0.000000 0.000000 0.000000 0.000000 0.000000 -0.000000 92.226100 88.306000 176.809000 83.489600 -63.466500 -2.790610 15.735700 0.000005 -0.000001 64.744800 82.939200 -61.936800 8.984550 -0.406207 -0.000000 5.184270 -6.075660 5.889240 16.377300 -0.000001 -0.000001 0.049599 -10.378600 0.536261 6.456720 -0.000001 -0.000000 0.868519 -11.938900 1.882180 12.994200 -0.242716 4.980390 -89.893300 -0.367693 -73.813600 5.348090 -0.000007 -0.000001 -57.471600 24.690000 -21.874800 24.328600 0.000019 0.000005 0.417541 0.486392 -40.619800 22.291600 -0.000001 0.000005 10.076300 5.546520 -8.543000 12.994500 -0.242716 -4.980390 88.162300 4.910730 -69.454300 -5.348130 -0.000001 -0.000004 -68.439100 12.059900 -1.285860 -24.328900 0.000322 -0.000009 0.983605 13.528300 -4.202110 -22.291500 -0.000108 -0.000004 11.287300 5.280230 0.621274 -2.192480 -6.469440 -0.000000 -165.577000 -9.454950 6.503760 39.081100 -0.000007 -0.000012 0.074923 -0.080255 43.031400 40.985400 -0.000006 -0.000013 -4.146480 -3.315080 -52.730100 11.754300 -0.000000 0.000003 -0.159390 -0.572960 -40.869500 -2.192510 6.469440 -0.000001 -167.313000 15.027300 153.828000 -39.081100 -0.002282 -0.040193 0.006373 -0.005205 30.553700 -40.985400 0.000008 0.000006 13.447000 -9.463210 -53.793700 -11.754300 -0.000006 -0.000006 -0.021932 -0.177762 -23.839600
0.000000 0.000000 0.000000 0.000000 0.000000 -0.000000 88.013800 88.567400 177.865000 81.793200 -65.231000 -3.241650 15.735700 0.000005 -0.000001 68.103700 82.766100 -65.089800 8.984550 -0.406207 -0.000000 5.828890 -5.432810 6.301500 16.377300 -0.000001 -0.000001 -0.199567 -9.978470 0.797689 6.456720 -0.000001 -0.000000 0.845688 -11.350300 1.680880 12.994200 -0.242716 4.980390 -89.796200 -0.695937 -73.673300 5.348090 -0.000007 -0.000001 -61.196900 26.664400 -17.573100 24.328600 0.000019 0.000005 1.083600 1.229500 -41.395100 22.291600 -0.000001 0.000005 8.949650 5.543750 -8.414550 12.994500 -0.242716 -4.980390 88.280700 4.665360 -69.744000 -5.348130 -0.000001 -0.000004 -69.344300 13.714800 -2.849960 -24.328900 0.000322 -0.000009 1.073400 13.552200 -4.576320 -22.291500 -0.000108 -0.000004 9.776260 5.278480 0.669244 -2.192480 -6.469440 -0.000000 -165.926000 -7.534810 2.584900 39.081100 -0.000007 -0.000012 0.123328 -0.095989 52.104700 40.985400 -0.000006 -0.000013 0.202053 -7.174450 -41.674700 11.754300 -0.000000 0.000003 -0.043821 -0.275009 -27.885300 -2.192510 6.469440 -0.000001 -166.821000 16.196500 157.317000 -39.081100 -0.002282 -0.040193 0.009910 -0.010359 32.554600 -40.985400 0.000008 0.000006 13.750600 -7.824510 -58.350800 -11.754300 -0.000006 -0.000006 -0.018843 -0.160796 -23.140500
0.000000 0.000000 0.000000 0.000000 0.000000 -0.000000 84.428300 88.764100 178.668000 80.435000 -67.160200 -4.335780 15.735700 0.000005 -0.000001 71.758300 82.853100 -68.686300 8.984550 -0.406207 -0.000000 5.952380 -4.511210 6.374330 16.377300 -0.000001 -0.000001 -0.332101 -9.711490 1.048030 6.456720 -0.000001 -0.000000 0.828531 -11.140500 1.964300 12.994200 -0.242716 4.980390 -89.768800 -0.783034 -73.546000 5.348090 -0.000007 -0.000001 -64.081300 29.226200 -14.066400 24.328600 0.000019 0.000005 0.829990 0.957701 -40.912300 22.291600 -0.000001 0.000005 7.304790 5.540250 -8.250930 12.994500 -0.242716 -4.980390 88.166100 5.010560 -69.867500 -5.348130 -0.000001 -0.000004 -69.550400 15.653000 -4.884050 -24.328900 0.000322 -0.000009 1.370930 12.688900 -6.223800 -22.291500 -0.000108 -0.000004 8.649640 5.291770 0.300635 -2.192480 -6.469440 -0.000000 -166.965000 -5.819920 -2.722760 39.081100 -0.000007 -0.000012 0.072302 -0.041184 60.330600 40.985400 -0.000006 -0.000013 3.839010 -7.839230 -35.484900 11.754300 -0.000000 0.000003 -0.008215 -0.089787 -20.233200 -2.192510 6.469440 -0.000001 -166.651000 16.802000 160.082000 -39.081100 -0.002282 -0.040193 0.009103 -0.008795 33.441700 -40.985400 0.000008 0.000006 13.314700 -6.108620 -61.918300 -11.754300 -0.000006 -0.000006 -0.017742 -0.154447 -22.879300
0.000000 0.000000 0.000000 0.000000 0.000000 -0.000000 81.037400 89.229300 179.550000 79.935500 -69.929700 -4.559740 15.735700 0.000005 -0.000001 77.196500 82.904700 -74.329000 8.984550 -0.406207 -0.000000 6.165100 -3.175970 5.901000 16.377300 -0.000001 -0.000001 -0.137825 -9.262130 1.296510 6.456720 -0.000001 -0.000000 0.772487 -11.138400 2.366510 12.994200 -0.242716 4.980390 -89.715300 -0.938069 -73.117500 5.348090 -0.000007 -0.000001 -66.628700 32.077400 -11.360000 24.328600 0.000019 0.000005 1.063130 1.317420 -38.921800 22.291600 -0.000001 0.000005 5.401470 5.530160 -7.794850 12.994500 -0.242716 -4.980390 88.046900 5.454570 -70.264800 -5.348130 -0.000001 -0.000004 -69.539800 17.789400 -7.157340 -24.328900 0.000322 -0.000009 1.849520 11.719000 -9.040240 -22.291500 -0.000108 -0.000004 8.539430 5.318470 -0.451441 -2.192480 -6.469440 -0.000000 -168.433000 -4.851170 -7.070040 39.081100 -0.000007 -0.000012 0.005184 -0.002217 66.795100 40.985400 -0.000006 -0.000013 4.073320 -5.781080 -40.514500 11.754300 -0.000000 0.000003 -0.008240 -0.089988 -20.241400 -2.192510 6.469440 -0.000001 -167.304000 15.402100 163.932000 -39.081100 -0.002282 -0.040193 0.020328 -0.026693 32.539300 -40.985400 0.000008 0.000006 13.101400 -5.308530 -64.123500 -11.754300 -0.000006 -0.000006 -0.017423 -0.152571 -22.802100
